Coordinates
version=1
nRows=14
nColumns=42
inDegrees=yes

Units are S.I. units (second, meters, Newtons, ...)
If the header above contains a line with 'inDegrees', this indicates whether rotational values are in degrees (yes) or radians (no).

endheader
time	pelvis_tilt	pelvis_list	pelvis_rotation	pelvis_tx	pelvis_ty	pelvis_tz	hip_flexion_r	hip_adduction_r	hip_rotation_r	knee_angle_r	knee_adduction_r	knee_angle_r_beta	ankle_angle_r	subtalar_angle_r	mtp_angle_r	hip_flexion_l	hip_adduction_l	hip_rotation_l	knee_angle_l	knee_adduction_l	knee_angle_l_beta	ankle_angle_l	subtalar_angle_l	mtp_angle_l	lumbar_extension	lumbar_bending	lumbar_rotation	arm_flex_r	arm_add_r	arm_rot_r	elbow_flex_r	pro_sup_r	wrist_flex_r	wrist_dev_r	arm_flex_l	arm_add_l	arm_rot_l	elbow_flex_l	pro_sup_l	wrist_flex_l	wrist_dev_l
      0.40000000	     12.27263568	     -2.15457988	      4.48239461	     -0.64851580	      0.92486791	     -0.22214942	    -19.04890180	     11.65023056	    -38.00994148	      9.12177294	     -6.96411584	      0.15920497	     29.45136388	     31.81200468	     -9.37934620	     22.30101370	     -1.94531879	    -35.45893438	     23.25842712	    -11.35531093	      0.40593613	     18.30963506	     38.58012461	     -9.37934620	    -43.84580122	      4.62931889	      1.75562903	      7.03563140	    -13.15423390	      8.54079944	     40.27066879	     90.00000001	      0.00000000	      0.00000000	     -5.10576899	     -8.41131290	     13.48015766	     46.00126538	     90.00000001	      0.00000000	      0.00000000
      0.41000000	     12.49538720	     -2.32397701	      4.56328965	     -0.64124066	      0.92348541	     -0.22277736	    -20.13915768	     11.77318930	    -38.05618151	      8.77577315	     -6.49871630	      0.15316614	     29.74779303	     32.14649306	     -9.36257802	     22.18642089	     -1.89988959	    -35.19789053	     23.57342805	    -11.55411607	      0.41143394	     18.33188790	     38.56881252	     -9.36257802	    -43.93148439	      4.68448848	      1.71624042	      6.86240603	    -13.07160282	      8.60643975	     40.10454030	     90.00000001	      0.00000000	      0.00000000	     -5.16245135	     -8.41150153	     13.52080924	     45.90499514	     90.00000001	      0.00000000	      0.00000000
      0.42000000	     12.73768254	     -2.46900490	      4.54840321	     -0.63382148	      0.92219910	     -0.22327621	    -21.17362958	     11.88941372	    -37.99437704	      8.51496069	     -6.23507869	      0.14861410	     29.94656108	     32.41330580	     -9.34659149	     21.97367880	     -1.84801094	    -34.82866035	     23.98168257	    -11.76994944	      0.41855932	     18.21999555	     38.46185531	     -9.34659149	    -44.04337457	      4.66823394	      1.73766856	      6.68699466	    -13.00353122	      8.68751214	     39.94807647	     90.00000001	      0.00000000	      0.00000000	     -5.23588055	     -8.43399550	     13.53181222	     45.82269628	     90.00000001	      0.00000000	      0.00000000
      0.43000000	     12.86636272	     -2.58067972	      4.35930907	     -0.62644603	      0.92080311	     -0.22355310	    -21.85407457	     11.91698426	    -37.86679742	      8.58491701	     -6.30361446	      0.14983507	     30.02537090	     32.42445431	     -9.33873658	     21.82865199	     -1.71868023	    -34.35495655	     24.37294057	    -12.08673762	      0.42538806	     18.03853450	     38.30649975	     -9.33873658	    -44.06004202	      4.50227370	      1.89683058	      6.47021315	    -12.96468679	      8.73554188	     39.80624600	     90.00000001	      0.00000000	      0.00000000	     -5.28469545	     -8.41189532	     13.52377304	     45.76541608	     90.00000001	      0.00000000	      0.00000000
      0.44000000	     13.20485450	     -2.63034150	      4.35143344	     -0.61865965	      0.91989622	     -0.22429376	    -23.03678470	     11.84202438	    -37.75836860	      8.38342890	     -5.88906225	      0.14631844	     30.37929847	     32.74515168	     -9.32347759	     21.44417194	     -1.61838820	    -33.87069997	     25.03819940	    -12.26073054	      0.43699902	     17.43844836	     37.95524221	     -9.32347759	    -44.24843718	      4.40438161	      1.81798745	      6.32507384	    -12.82163794	      8.85246356	     39.59293488	     90.00000001	      0.00000000	      0.00000000	     -5.38352843	     -8.39499837	     13.54638457	     45.59045428	     90.00000001	      0.00000000	      0.00000000
      0.45000000	     13.46850038	     -2.61448374	      4.15464832	     -0.61086118	      0.91905534	     -0.22478577	    -23.97871825	     11.63598579	    -37.55679477	      8.40170098	     -5.71140649	      0.14663734	     30.56378551	     32.99856335	     -9.29882843	     21.01241530	     -1.39343879	    -33.23592913	     25.54380133	    -12.47015315	      0.44582344	     16.57964340	     37.33538190	     -9.29882843	    -44.37533416	      4.13142797	      1.81642841	      6.13981311	    -12.75582737	      8.95466955	     39.36065937	     90.00000001	      0.00000000	      0.00000000	     -5.47416741	     -8.42809357	     13.53482272	     45.48022800	     90.00000001	      0.00000000	      0.00000000
      0.46000000	     13.56550386	     -2.65377090	      3.86782080	     -0.60313641	      0.91802367	     -0.22507504	    -24.46345068	     11.53584342	    -37.21802851	      8.73746240	     -5.99422066	      0.15249749	     30.54930566	     32.90408593	     -9.28956128	     20.78237550	     -1.19137126	    -32.61378968	     26.01727835	    -12.85116834	      0.45408717	     16.24485149	     36.97998100	     -9.28956128	    -44.34059187	      3.82994745	      1.95175816	      5.88713516	    -12.68187934	      8.99208485	     39.23255189	     90.00000001	      0.00000000	      0.00000000	     -5.57207211	     -8.42528463	     13.51928095	     45.39597328	     90.00000001	      0.00000000	      0.00000000
      0.47000000	     13.90228107	     -2.49044541	      3.60845090	     -0.59539424	      0.91787099	     -0.22565779	    -25.28278929	     11.02844962	    -37.05166550	      9.21777608	     -5.87292125	      0.16088054	     30.97854088	     32.91582311	     -9.26032454	     20.17617212	     -0.89152321	    -31.83887067	     26.65081015	    -12.80381447	      0.46514439	     14.53508618	     35.25189865	     -9.26032454	    -44.60503911	      3.38982924	      1.87999189	      5.83661291	    -12.51367428	      9.08287068	     38.85874619	     90.00000001	      0.00000000	      0.00000000	     -5.55522263	     -8.43398457	     13.53200788	     45.10556161	     90.00000001	      0.00000000	      0.00000000
      0.48000000	     14.03704754	     -2.17830570	      3.36565867	     -0.58795157	      0.91766874	     -0.22653308	    -25.53798227	     10.26218019	    -37.31276083	     10.23457518	     -6.04944911	      0.17862703	     31.41532986	     33.25716485	     -9.16916857	     19.52279384	      0.12067050	    -29.69438547	     26.62348986	    -12.76886012	      0.46466756	     13.29296748	     31.75038083	     -9.16916857	    -44.69478763	      2.82467111	      1.72291514	      5.74804549	    -12.32778791	      9.03107172	     38.51495583	     90.00000001	      0.00000000	      0.00000000	     -5.54674421	     -8.46392892	     13.52590928	     44.95790776	     90.00000001	      0.00000000	      0.00000000
      0.49000000	     14.17093206	     -2.09222326	      3.02777792	     -0.58027856	      0.91751985	     -0.22688896	    -25.85109854	      9.92996756	    -36.93092370	     10.94330091	     -6.44140212	      0.19099663	     31.40936120	     33.05068551	     -9.14518343	     19.17610330	      0.23862078	    -29.30599759	     27.26369257	    -12.83373651	      0.47584120	     12.36255739	     30.66507411	     -9.14518343	    -44.76119605	      2.38883630	      1.74191221	      5.63617537	    -12.16770781	      9.06532452	     38.27158094	     90.00000001	      0.00000000	      0.00000000	     -5.57090578	     -8.50897560	     13.55011896	     44.72630227	     90.00000001	      0.00000000	      0.00000000
      0.50000000	     14.14974824	     -1.80418891	      2.78082246	     -0.57299463	      0.91746986	     -0.22774165	    -25.74913363	      9.21258244	    -37.00479754	     12.18368115	     -6.81668067	      0.21264535	     31.80506298	     32.82825869	     -9.06149876	     18.72559572	      1.08316899	    -27.41309233	     27.37601362	    -12.70537771	      0.47780157	     11.15160072	     27.05762071	     -9.06149876	    -44.71727127	      1.83879476	      1.58328189	      5.58395639	    -11.94545285	      8.93276156	     37.87043944	     90.00000001	      0.00000000	      0.00000000	     -5.50905701	     -8.57325937	     13.61239576	     44.48486408	     90.00000001	      0.00000000	      0.00000000
      0.51000000	     14.27807156	     -1.68929999	      2.61004110	     -0.56540994	      0.91777704	     -0.22848964	    -26.05017858	      9.00786729	    -36.59397633	     12.70904698	     -7.32199952	      0.22181471	     31.63721196	     32.86200056	     -9.05597431	     18.35984264	      1.30166435	    -27.15960646	     27.88968164	    -12.90424967	      0.48676677	     10.84684070	     26.86575988	     -9.05597431	    -44.80031890	      1.47618134	      1.51070395	      5.43732715	    -11.79696185	      8.96309770	     37.72454242	     90.00000001	      0.00000000	      0.00000000	     -5.50184412	     -8.62930761	     13.62807427	     44.36510307	     90.00000001	      0.00000000	      0.00000000
      0.52000000	     14.07465611	     -1.43682871	      2.27849351	     -0.55838052	      0.91787133	     -0.22920856	    -25.44971663	      8.23007074	    -36.49246698	     14.48697660	     -7.84796253	      0.25284544	     31.71757947	     31.96081386	     -8.99694414	     18.20660802	      1.77364532	    -26.37352461	     28.17673478	    -12.75618292	      0.49177679	      9.79550544	     24.30465981	     -8.99694414	    -44.59946859	      0.90464593	      1.42693949	      5.42684356	    -11.56447822	      8.81471878	     37.24904273	     90.00000001	      0.00000000	      0.00000000	     -5.40263658	     -8.71179653	     13.81844706	     44.07892167	     90.00000001	      0.00000000	      0.00000000
      0.53000000	     14.13634004	     -1.36166902	      2.28715621	     -0.55082970	      0.91851419	     -0.23026586	    -25.67303314	      8.15942907	    -36.11427187	     14.95253143	     -8.32557519	      0.26097090	     31.50432069	     31.99236856	     -8.99384602	     17.84463113	      1.95000056	    -26.23904871	     28.53747127	    -12.91648754	      0.49807283	      9.71964659	     24.26224298	     -8.99384602	    -44.61034095	      0.68710710	      1.25354076	      5.22170412	    -11.40156713	      8.84434830	     37.13432153	     90.00000001	      0.00000000	      0.00000000	     -5.41641943	     -8.81578847	     13.82297047	     43.98143926	     90.00000001	      0.00000000	      0.00000000
